# xmcd
#
# Track frame offsets: 
#        150
#        28843
#        50660
#        91766
#        133103
#        158015
#        179506
#        219908
#        259758
#
# Disc length: 4003 seconds
#
# Revision: 0
# Processed by: cddbd v1.4PL0 Copyright (c) Steve Scherf et al.
# Submitted via: ExactAudioCopy v0.90a11
#
DISCID=780fa109
DTITLE=Geoff Achison and The Souldiggers - Live at St. Andrews
DYEAR=1900
DGENRE=
TTITLE0=Souldigger
TTITLE1=Natch'l Fax
TTITLE2=As The Years Go Passing By
TTITLE3=Stepping Stones
TTITLE4=Tell Me Something I Don't Know
TTITLE5=Chance
TTITLE6=Hold On To What You Got
TTITLE7=Jungle
TTITLE8=Same Old Blues
EXTD=
EXTT0=
EXTT1=
EXTT2=
EXTT3=
EXTT4=
EXTT5=
EXTT6=
EXTT7=
EXTT8=
PLAYORDER=
